#!OML:ASF Y:\EmotionMaleHayes\Project 1\Capture day 1\Session 1\Male1.ASF
:FULLY-SPECIFIED
:DEGREES
2088
root 10.0469 16.9427 1.65082 535.37 13.6432 176.144
lowerback 4.45654 3.50432 -4.68964
upperback 0.526581 4.53029 -2.62188
thorax -2.09672 2.34738 -0.368542
lowerneck -22.5472 1.61144 5.59316
upperneck 29.6356 1.14782 0.640856
head 13.9105 1.67678 -0.374402
rclavicle -2.03413e-014 6.36111e-015
rhumerus -35.9253 3.51815 -89.48
rradius 29.1143
rwrist 7.62087
rhand -8.20588 -32.7134
rfingers 7.12502
rthumb 17.7107 -61.9268
lclavicle -2.03413e-014 6.36111e-015
lhumerus -33.119 0.442868 81.1027
lradius 26.1929
lwrist -10.2064
lhand -13.7224 -23.6202
lfingers 7.12502
lthumb 12.3968 5.99221
rfemur 17.0237 3.39004 13.9154
rtibia 40.9347
rfoot 7.30849 -3.43742
rtoes 26.8968
lfemur -1.68535 8.01366 -22.8148
ltibia 6.41754
lfoot -4.06941 7.07763
ltoes 15.2979
2089
root 10.0395 16.9466 1.52183 534.925 13.4229 175.159
lowerback 4.65498 3.37448 -5.81497
upperback 0.522621 4.30743 -2.75333
thorax -2.27555 2.25809 0.116222
lowerneck -22.5575 1.73117 5.42915
upperneck 29.7374 1.40167 0.617367
head 13.9615 1.7675 -0.307804
rclavicle -4.30245e-014 4.13472e-014
rhumerus -36.6577 3.05054 -89.0387
rradius 28.8429
rwrist 8.19253
rhand -8.41238 -32.9093
rfingers 7.12502
rthumb 17.512 -62.1406
lclavicle -4.30245e-014 4.13472e-014
lhumerus -32.6943 0.139406 81.4087
lradius 26.6551
lwrist -10.5027
lhand -13.5874 -23.7658
lfingers 7.12502
lthumb 12.5269 5.8387
rfemur 16.4121 3.29619 12.7411
rtibia 42.3713
rfoot 7.67844 -4.30271
rtoes 26.8576
lfemur -1.02812 7.86197 -24.1106
ltibia 6.47176
lfoot -4.47837 6.94244
ltoes 14.6937
2090
root 10.0258 16.9467 1.38826 534.296 13.102 173.723
lowerback 4.82643 3.24556 -7.27653
upperback 0.619832 4.0918 -3.03746
thorax -2.33736 2.18185 0.634113
lowerneck -22.4346 1.85811 5.34154
upperneck 29.6737 1.63185 0.608512
head 13.9129 1.8518 -0.25662
rclavicle 2.58047e-014 -7.4743e-014
rhumerus -37.2061 2.16608 -88.3921
rradius 28.4409
rwrist 9.14358
rhand -8.44463 -32.9371
rfingers 7.12502
rthumb 17.481 -62.1712
lclavicle 2.58047e-014 -7.4743e-014
lhumerus -32.2565 -0.763134 81.9593
lradius 27.3895
lwrist -10.0157
lhand -13.5663 -23.4315
lfingers 7.12502
lthumb 12.5472 6.17171
rfemur 15.7804 2.39866 10.1654
rtibia 43.8748
rfoot 7.94367 -3.86787
rtoes 27.9853
lfemur -0.209516 7.53925 -26.0177
ltibia 6.43626
lfoot -5.04021 6.99671
ltoes 14.3972
2091
root 10.0088 16.9491 1.25611 533.873 12.8024 172.837
lowerback 4.93107 3.15803 -8.14773
upperback 0.689938 3.95273 -3.22371
thorax -2.3556 2.13256 0.925872
lowerneck -22.2309 1.94815 5.44151
upperneck 29.5084 1.79313 0.419467
head 13.8056 1.89788 -0.324841
rclavicle 9.06334e-015 7.55382e-015
rhumerus -37.84 1.68208 -87.9401
rradius 28.1984
rwrist 9.40142
rhand -8.21413 -32.8061
rfingers 7.12502
rthumb 17.7028 -62.0203
lclavicle 9.06334e-015 7.55382e-015
lhumerus -31.8033 -1.73078 82.5172
lradius 28.0998
lwrist -9.30722
lhand -13.824 -23.2321
lfingers 7.12502
lthumb 12.2989 6.38617
rfemur 15.1714 2.0855 8.82922
rtibia 45.2557
rfoot 7.45736 -3.73607
rtoes 28.1384
lfemur 0.528366 7.2721 -27.2948
ltibia 6.40453
lfoot -5.45156 6.97891
ltoes 13.6133
2092
root 9.9974 16.9519 1.12664 533.555 12.5581 172.42
lowerback 5.03576 3.09837 -8.52846
upperback 0.756682 3.86259 -3.31652
thorax -2.35418 2.09689 1.04174
lowerneck -22.2653 2.00396 5.47124
upperneck 29.5397 1.90156 0.295831
head 13.8308 1.93018 -0.358829
rclavicle 3.18055e-015 -2.98177e-014
rhumerus -38.5341 1.46782 -87.661
rradius 28.0994
rwrist 9.03356
rhand -8.13496 -32.7254
rfingers 7.12502
rthumb 17.779 -61.9326
lclavicle 3.18055e-015 -2.98177e-014
lhumerus -31.3142 -2.44123 82.8949
lradius 28.7382
lwrist -9.0657
lhand -14.0945 -23.1449
lfingers 7.12502
lthumb 12.038 6.48887
rfemur 14.5861 2.08496 8.494
rtibia 46.6263
rfoot 6.25946 -3.77008
rtoes 24.4575
lfemur 1.22701 7.29125 -27.9055
ltibia 6.46821
lfoot -5.70748 6.60838
ltoes 11.8189
2093
root 9.986 16.9541 0.996736 533.262 12.3914 172.09
lowerback 5.07136 3.01799 -8.9107
upperback 0.844009 3.74477 -3.27793
thorax -2.29867 2.04059 1.30173
lowerneck -22.2895 2.12787 5.59586
upperneck 29.5921 2.12429 0.02523
head 13.8696 2.00146 -0.446651
rclavicle 2.00338e-014 -1.07344e-014
rhumerus -39.1734 1.40873 -87.2892
rradius 28.0306
rwrist 8.43492
rhand -8.3698 -32.8469
rfingers 7.12502
rthumb 17.553 -62.0745
lclavicle 2.00338e-014 -1.07344e-014
lhumerus -30.7933 -2.86906 83.3229
lradius 29.3608
lwrist -8.82589
lhand -14.1824 -23.0387
lfingers 7.12502
lthumb 11.9532 6.60006
rfemur 13.7607 1.46624 7.63775
rtibia 48.066
rfoot 5.01818 -3.19651
rtoes 20.3004
lfemur 1.91051 7.60391 -28.3113
ltibia 6.5667
lfoot -6.00466 6.03146
ltoes 11.7504
2094
root 9.97199 16.9581 0.869468 533.074 12.2292 171.816
lowerback 5.04151 2.94404 -9.21369
upperback 0.898592 3.64416 -3.26155
thorax -2.23437 1.99191 1.49661
lowerneck -22.1474 2.21873 5.99847
upperneck 29.4677 2.25792 -0.445417
head 13.8025 2.03078 -0.682178
rclavicle 2.97307e-014 1.43125e-014
rhumerus -39.7586 0.994071 -86.8236
rradius 27.899
rwrist 8.31995
rhand -8.57671 -32.9488
rfingers 7.12502
rthumb 17.3539 -62.1941
lclavicle 2.97307e-014 1.43125e-014
lhumerus -30.1461 -3.53689 83.7393
lradius 29.8277
lwrist -8.22985
lhand -14.2052 -23.1802
lfingers 7.12502
lthumb 11.9312 6.45983
rfemur 12.9535 1.40869 7.3162
rtibia 49.2845
rfoot 3.40074 -3.48151
rtoes 21.0386
lfemur 2.5281 7.75031 -28.7267
ltibia 6.57755
lfoot -6.30625 5.78039
ltoes 12.5231
2095
root 9.95955 16.9634 0.746183 532.959 11.9691 171.49
lowerback 5.00392 2.88255 -9.46082
upperback 0.901963 3.56977 -3.3963
thorax -2.207 1.96283 1.50055
lowerneck -22.1596 2.2277 6.07135
upperneck 29.5258 2.24833 -0.435961
head 13.831 2.04081 -0.691118
rclavicle -1.9543e-014 -6.75868e-015
rhumerus -40.3774 -0.33757 -86.1187
rradius 27.6912
rwrist 9.16927
rhand -8.65125 -32.9577
rfingers 7.12502
rthumb 17.2821 -62.2092
lclavicle -1.9543e-014 -6.75868e-015
lhumerus -29.3719 -3.93639 83.8495
lradius 30.0331
lwrist -8.22607
lhand -14.22 -23.657
lfingers 7.12502
lthumb 11.917 5.98387
rfemur 12.0491 1.24693 6.92256
rtibia 50.4789
rfoot 2.00893 -3.73362
rtoes 22.7209
lfemur 3.07048 7.4561 -29.3537
ltibia 6.53357
lfoot -6.69962 5.9224
ltoes 12.3595
2096
root 9.94712 16.9685 0.621837 532.965 11.7511 171.664
lowerback 4.93968 2.80283 -9.23863
upperback 0.884135 3.47352 -3.35053
thorax -2.17141 1.90895 1.4379
lowerneck -22.0944 2.2704 5.99442
upperneck 29.6058 2.32745 -0.320973
head 13.8521 2.09111 -0.61618
rclavicle 2.65129e-014 8.34896e-015
rhumerus -41.1073 -1.49659 -85.2916
rradius 27.6183
rwrist 9.89514
rhand -8.51843 -32.9019
rfingers 7.12502
rthumb 17.41 -62.1423
lclavicle 2.65129e-014 8.34896e-015
lhumerus -28.6571 -3.64532 83.9281
lradius 30.2062
lwrist -8.97503
lhand -14.2934 -24.1992
lfingers 7.12502
lthumb 11.8462 5.44574
rfemur 11.042 0.824209 6.91716
rtibia 51.6062
rfoot 1.08287 -3.78117
rtoes 22.9911
lfemur 3.59053 7.1206 -29.3658
ltibia 6.50899
lfoot -7.17508 6.0026
ltoes 12.3582
2097
root 9.93509 16.9742 0.50313 532.989 11.5457 171.87
lowerback 4.92482 2.67478 -9.14567
upperback 0.847901 3.28953 -3.16825
thorax -2.19082 1.8104 1.59055
lowerneck -22.0356 2.3828 5.82398
upperneck 29.7091 2.5843 -0.329925
head 13.8901 2.18829 -0.542455
rclavicle -2.36057e-014 -6.0033e-014
rhumerus -41.7964 -2.12833 -84.5186
rradius 27.6011
rwrist 10.2012
rhand -8.4618 -32.8814
rfingers 7.12502
rthumb 17.4645 -62.1169
lclavicle -2.36057e-014 -6.0033e-014
lhumerus -28.1837 -3.82168 84.3279
lradius 30.7483
lwrist -9.00493
lhand -14.4897 -24.3192
lfingers 7.12502
lthumb 11.6569 5.33649
rfemur 10.0025 0.471873 7.02914
rtibia 52.5516
rfoot 0.297801 -3.98255
rtoes 22.9604
lfemur 4.03162 7.01603 -29.249
ltibia 6.56045
lfoot -7.57111 5.89467
ltoes 12.3316
2098
root 9.92194 16.9826 0.391832 532.863 11.2163 171.081
lowerback 4.90897 2.48913 -10.1036
upperback 0.831538 3.01538 -3.24296
thorax -2.21312 1.69223 2.05941
lowerneck -21.8733 2.45635 6.01841
upperneck 29.608 2.73282 -0.665787
head 13.8259 2.22165 -0.686297
rclavicle -2.24875e-015 -1.47101e-014
rhumerus -42.3082 -3.15546 -83.6058
rradius 27.4722
rwrist 10.8778
rhand -8.45496 -32.7317
rfingers 7.12502
rthumb 17.471 -61.9666
lclavicle -2.24875e-015 -1.47101e-014
lhumerus -27.7718 -4.42162 84.6924
lradius 31.545
lwrist -8.43421
lhand -14.7296 -23.9531
lfingers 7.12502
lthumb 11.4255 5.71557
rfemur 8.89945 0.206181 6.04202
rtibia 53.4349
rfoot -0.433819 -3.9761
rtoes 22.298
lfemur 4.36519 7.03444 -30.3189
ltibia 6.62219
lfoot -7.85831 5.68173
ltoes 12.2805
2099
root 9.90842 16.992 0.275136 532.726 10.8787 170.404
lowerback 4.80547 2.3158 -10.7545
upperback 0.894599 2.79942 -3.4097
thorax -2.08264 1.59508 2.26613
lowerneck -21.8417 2.5797 6.21534
upperneck 29.5952 2.8913 -0.819498
head 13.827 2.28912 -0.752641
rclavicle 6.72141e-015 1.43125e-014
rhumerus -43.007 -1.6882 -84.2939
rradius 27.9974
rwrist 8.28474
rhand -8.6486 -33.2699
rfingers 7.12502
rthumb 17.2847 -62.5212
lclavicle 6.72141e-015 1.43125e-014
lhumerus -27.2932 -5.58967 84.9696
lradius 32.2725
lwrist -7.35897
lhand -14.8459 -23.6438
lfingers 7.12502
lthumb 11.3134 6.03103
rfemur 7.90973 0.0940247 5.23749
rtibia 54.1678
rfoot -1.11533 -3.81321
rtoes 22.3264
lfemur 4.81671 7.20106 -31.2459
ltibia 6.58391
lfoot -7.95445 5.34896
ltoes 10.7279
2100
root 9.89526 16.9993 0.156204 532.631 10.5651 170.113
lowerback 4.71023 2.1604 -10.9649
upperback 0.947867 2.61352 -3.48728
thorax -1.95463 1.50274 2.32092
lowerneck -21.8357 2.75404 6.42975
upperneck 29.673 3.17029 -1.09323
head 13.8808 2.39873 -0.845973
rclavicle 2.93083e-014 -2.34566e-014
rhumerus -43.4318 -3.65946 -83.0108
rradius 27.7507
rwrist 9.4972
rhand -8.318 -33.049
rfingers 7.12502
rthumb 17.6028 -62.2722
lclavicle 2.93083e-014 -2.34566e-014
lhumerus -26.9102 -7.37886 85.3443
lradius 32.9341
lwrist -5.74508
lhand -14.9842 -23.5798
lfingers 7.12502
lthumb 11.18 6.10234
rfemur 6.96138 -0.131023 4.73831
rtibia 54.7361
rfoot -1.73484 -3.42428
rtoes 23.5261
lfemur 5.36695 7.24254 -31.7375
ltibia 6.48422
lfoot -8.05812 5.0258
ltoes 9.50802
